<?xml version="1.0" encoding="UTF-8"?>
<svg id="Calque_2" data-name="Calque 2" xmlns="http://www.w3.org/2000/svg" xmlns:xlink="http://www.w3.org/1999/xlink" viewBox="0 0 768.17 263.41">
  <defs>
    <style>
      .cls-1 {
        fill: #234d6d;
      }

      .cls-2 {
        fill: #42a5a1;
      }

      .cls-3 {
        fill: url(#Dégradé_sans_nom_2);
      }
    </style>
    <linearGradient id="Dégradé_sans_nom_2" data-name="Dégradé sans nom 2" x1=".16" y1="246.74" x2="418.27" y2="246.74" gradientUnits="userSpaceOnUse">
      <stop offset="0" stop-color="#183251"/>
      <stop offset=".11" stop-color="#3066ab"/>
      <stop offset=".19" stop-color="#1d9499"/>
      <stop offset=".29" stop-color="#53acde"/>
      <stop offset=".38" stop-color="#42ad6e"/>
      <stop offset=".46" stop-color="#7eb635"/>
      <stop offset=".56" stop-color="#dfdb30"/>
      <stop offset=".65" stop-color="#fddc38"/>
      <stop offset=".74" stop-color="#f5a837"/>
      <stop offset=".84" stop-color="#e8633c"/>
      <stop offset=".92" stop-color="#d11b24"/>
      <stop offset="1" stop-color="#be4f94"/>
    </linearGradient>
  </defs>
  <g id="Calque_1-2" data-name="Calque 1">
    <g>
      <path class="cls-2" d="m362.59,154.94h-7.07v36.93h7.07v-36.93Z"/>
      <path class="cls-2" d="m400.26,154.94v25.47l-19.07-25.47h-6.68v36.93h6.92v-25.44l18.99,25.44h6.71v-36.93h-6.86Z"/>
      <path class="cls-2" d="m439.7,172.28c-1.6-.75-3.66-1.47-6.14-2.22-1.78-.52-3.2-1.01-4.23-1.45-1.03-.44-1.91-1.01-2.58-1.68-.67-.7-1.03-1.55-1.03-2.55,0-1.11.49-2.01,1.47-2.63.98-.62,2.32-.95,4.03-.95,1.52,0,3.25.31,5.24.95s3.92,1.52,5.83,2.68l2.84-6.17c-1.83-1.19-3.92-2.14-6.25-2.84-2.35-.7-4.7-1.06-7.1-1.06-2.74,0-5.16.44-7.25,1.32-2.09.88-3.72,2.12-4.85,3.72s-1.7,3.48-1.7,5.63c0,2.32.57,4.21,1.68,5.63s2.48,2.5,4.05,3.2c1.57.7,3.61,1.42,6.12,2.17,1.83.52,3.28,1.01,4.34,1.42,1.06.41,1.94.98,2.61,1.65.7.67,1.03,1.55,1.03,2.61,0,1.32-.57,2.32-1.68,3.1-1.14.75-2.68,1.14-4.65,1.14s-4.18-.49-6.5-1.47c-2.32-.98-4.41-2.35-6.27-4.05l-2.97,6.01c2.04,1.81,4.44,3.23,7.17,4.31,2.74,1.08,5.55,1.6,8.44,1.6s5.19-.44,7.3-1.32c2.12-.88,3.79-2.14,5.01-3.82,1.21-1.68,1.83-3.64,1.83-5.88s-.57-4.26-1.68-5.7c-1.14-1.45-2.48-2.53-4.08-3.28"/>
      <path class="cls-2" d="m450.92,161.21h11.51v30.66h7.12v-30.66h11.48v-6.27h-30.12v6.27Z"/>
      <path class="cls-2" d="m517.42,175.04c1.24-2.04,1.88-4.49,1.88-7.38,0-4.05-1.29-7.17-3.9-9.39s-6.3-3.33-11.07-3.33h-15.41v36.93h7.07v-10.86h8.34c.59,0,1.03,0,1.32-.05l6.37,10.92h8.08l-8.13-12.23c2.4-1.03,4.21-2.55,5.47-4.59m-6.99-2.01c-1.42,1.16-3.46,1.75-6.12,1.75h-8.34v-13.68h8.34c2.68,0,4.72.57,6.12,1.68,1.39,1.14,2.12,2.81,2.12,5.06s-.7,4-2.12,5.16"/>
      <path class="cls-2" d="m554.4,176.67c0,2.92-.8,5.21-2.4,6.86-1.6,1.65-3.79,2.48-6.58,2.48s-5.01-.83-6.66-2.48-2.48-3.95-2.48-6.86v-21.73h-7.07v21.73c0,3.2.65,5.99,1.96,8.36,1.32,2.37,3.17,4.21,5.63,5.47,2.45,1.26,5.32,1.88,8.62,1.88s6.12-.62,8.52-1.88c2.4-1.26,4.26-3.1,5.57-5.47,1.32-2.37,1.96-5.16,1.96-8.36v-21.73h-7.07v21.73Z"/>
      <path class="cls-2" d="m592.98,178.73l-12.26-23.79h-8.08v36.93h6.45v-26.5l11.54,22.71h4.54l11.51-22.71v26.5h6.5v-36.93h-8.08l-12.13,23.79Z"/>
      <path class="cls-2" d="m632.18,176.41h17.94v-6.17h-17.94v-9.14h20v-6.17h-27.07v36.93h27.69v-6.17h-20.62v-9.29Z"/>
      <path class="cls-2" d="m688.59,180.41l-19.04-25.47h-6.71v36.93h6.92v-25.44l18.99,25.44h6.71v-36.93h-6.86v25.47Z"/>
      <path class="cls-2" d="m703.25,161.21h11.51v30.66h7.12v-30.66h11.51v-6.27h-30.14v6.27Z"/>
      <path class="cls-2" d="m766.01,175.56c-1.14-1.45-2.5-2.53-4.1-3.28-1.6-.75-3.64-1.47-6.14-2.22-1.81-.52-3.2-1.01-4.26-1.45-1.03-.44-1.91-1.01-2.58-1.68s-1.03-1.55-1.03-2.55c0-1.11.49-2.01,1.47-2.63.98-.62,2.32-.95,4-.95,1.52,0,3.25.31,5.24.95,1.99.65,3.92,1.52,5.83,2.68l2.84-6.17c-1.83-1.19-3.92-2.14-6.25-2.84-2.35-.7-4.7-1.06-7.1-1.06-2.74,0-5.16.44-7.25,1.32s-3.72,2.12-4.85,3.72c-1.14,1.6-1.73,3.48-1.73,5.63,0,2.32.57,4.21,1.68,5.63,1.14,1.42,2.48,2.5,4.05,3.2,1.57.7,3.61,1.42,6.12,2.17,1.83.54,3.28,1.01,4.34,1.42,1.06.41,1.94.98,2.61,1.65.7.67,1.03,1.55,1.03,2.61,0,1.29-.57,2.32-1.68,3.1-1.14.75-2.68,1.14-4.65,1.14s-4.18-.49-6.5-1.47c-2.32-.98-4.41-2.35-6.27-4.05l-2.97,6.01c2.04,1.81,4.44,3.23,7.17,4.31s5.55,1.6,8.44,1.6,5.19-.44,7.3-1.32c2.14-.88,3.79-2.14,5.01-3.82,1.21-1.68,1.83-3.64,1.83-5.88s-.57-4.26-1.68-5.7"/>
      <path class="cls-1" d="m399.84,3.38h-44.32v133.91h44.32V3.38Z"/>
      <path class="cls-1" d="m506.24,137.29l-16.04-34.76h-16.61v34.76h-44.32V3.38h64.75c18.21,0,32.28,4.18,42.23,12.53,9.94,8.34,14.9,20.14,14.9,35.43,0,9.68-1.81,18.13-5.45,25.31-3.62,7.21-8.88,12.89-15.75,17.1l26.37,43.54h-50.08Zm-32.67-68.39h20.43c4.83,0,8.57-1.42,11.18-4.29s3.93-6.84,3.93-11.93-1.32-8.81-3.93-11.54-6.33-4.11-11.18-4.11h-20.43v31.9-.03Z"/>
      <path class="cls-1" d="m622.38,3.38h-44.32v133.91h44.32V3.38Z"/>
      <path class="cls-1" d="m727.83,38.74c-8.91-3.18-16.17-4.78-21.77-4.78s-8.21,1.99-8.21,5.91c0,3.05,1.76,5.42,5.24,7.08,3.51,1.65,9.07,3.51,16.71,5.55,9.56,2.66,17.48,5.35,23.79,8.03,6.3,2.69,11.8,6.92,16.53,12.71,4.7,5.79,7.08,13.4,7.08,22.83s-2.51,17.79-7.54,24.35c-5.04,6.56-11.8,11.44-20.35,14.62-8.55,3.18-18.03,4.78-28.46,4.78-11.85,0-23.79-1.94-35.82-5.84-12.04-3.87-22.44-9.19-31.22-15.93l16.43-33.45c6.74,5.86,15.21,10.85,25.41,15.01,10.2,4.13,18.72,6.2,25.59,6.2,3.31,0,5.91-.59,7.83-1.81,1.91-1.21,2.87-3.1,2.87-5.63,0-3.05-1.81-5.45-5.45-7.15-3.64-1.73-9.32-3.54-17.1-5.45-9.43-2.43-17.28-4.93-23.61-7.54-6.3-2.61-11.75-6.66-16.32-12.14-4.57-5.48-6.87-12.81-6.87-21.98s2.35-16.71,7.08-23.4c4.7-6.69,11.39-11.8,20.07-15.37,8.65-3.56,18.72-5.35,30.19-5.35,10.43,0,20.84,1.47,31.22,4.39,10.38,2.92,19.4,6.82,27.04,11.65l-16.04,33.81c-7.26-4.21-15.34-7.9-24.25-11.08"/>
      <path class="cls-1" d="m318.95,144.06c-1.91-1.03-1.01-2.53-1.06-3.69,1.03-13.79.49-28.1-4.42-41.9-4.62-15.37-12.84-28.13-24.23-39.03-12.58-12.06-27.25-19.91-43.63-24.02-9.74-2.45-19.73-3.44-30.01-2.69-13.46.98-26.22,3.95-38.31,9.97-23.97,11.96-40.99,30.71-48.15,57.5-6.15,23.07-1.94,45.02,10.07,65.35,8.37,14.13,19.81,23.38,33.24,32.39,5.37,2.58,10.31,5.17,15.7,7.72,2.89,1.55,2.74,2.79,2.76,4.11.21,6.79-.52,6.07-9.22,6.02-5.99-.03-11.93-.31-17.95-.18-12.4.28-24.77,1.01-37.14,1.7-12.06.7-24.07,1.94-36.01,3.54-15.76,2.07-31.41,5.17-46.8,9.35-15.11,4.11-29.73,9.61-43.34,17.75-.15-.28-.31-.57-.46-.85,5.4-3.62,10.64-7.44,16.2-10.77,14.8-8.86,30.35-15.99,46.44-22.08,20.41-7.7,41.51-12.17,62.69-16.45,1.47-.28,2.01-.39,4.49-.7-5.71-5.11-11.65-9.94-16.58-15.91-13.3-16.14-22.42-30.94-25.65-51.92-1.34-8.63-1.65-17.49-.44-26.19,2.12-15.14,6.51-29.5,14.36-42.72,5.94-10.02,12.84-19.14,21.49-26.6,11.13-9.61,23.43-17.28,37.2-22.5,9.04-3.44,18.29-6.07,27.66-7.1,10.62-1.16,21.31-1.68,32.13.13,11.16,1.86,22.14,4.08,32.52,8.63,13.69,5.99,26.11,14.05,37.12,24.64,11.03,10.64,19.19,23.17,25.08,37.32,4.57,10.93,7,22.47,7.83,34.48.83,11.8-.75,23.14-3.59,34.69"/>
      <path class="cls-2" d="m274.39,205.46c47.81,15.73,96.19,17.82,144.8,6.02-16.35,6.97-33.4,10.8-50.81,13.15-12.94,1.76-25.88,2.66-38.93,3.31-14.77.72-29.5.44-44.2-.57-13.43-.93-26.84-2.45-40.11-4.86-8.47-1.55-16.97-2.89-25.31-5.17-1.78-.49-2.27-.93-2.22-2.79.1-6.15.1-5.92,6.25-8.01,14.18-4.86,26.09-13.1,35.59-25.31,12.45-16.01,16.84-34.53,16.32-54.37-.36-14.65-4.99-28.1-13.74-39.88-11.47-15.42-26.09-25.34-44.74-28.62-21.46-3.77-40.17,2.27-56.65,16.87-12.35,10.93-19.94,24.8-23.53,40.97-1.55,7.03-3.51,13.79-2.09,21.13.26,1.27-.08,2.66-.46,4-2.74-10.87-3.28-21.13-1.45-32.52,2.17-13.53,7.44-25.49,15.32-36.19,5.61-7.59,12.68-13.77,20.59-18.88,14-9.09,29.16-13.95,45.64-15.21,19.37-1.47,37.4,2.82,54.27,12.35,23.87,13.46,37.89,34.61,43.03,62.04,4.75,25.42-1.08,48.53-14.9,70.05-5.35,8.34-12.14,14.54-19.79,20.12-.83.59-1.73,1.45-2.82,2.38"/>
      <path class="cls-3" d="m.16,263.41s33.28-21.93,111.55-28.51c27.37-2.3,60.98-2.3,107.6,2.78,55.44,6.03,70.25,9.97,115.61,10.15,41,.16,83.35-17.77,83.35-17.77,0,0-42.27,31.56-108.52,31.15-46.44-.29-60.37-3.39-95.07-6.95-14.71-1.51-67.03-5.44-87.03-5.58C39.36,248.04.16,263.41.16,263.41Z"/>
    </g>
  </g>
</svg>